<svg width="180" height="175" fill="none" xmlns="http://www.w3.org/2000/svg"><path d="M132.579 76.805c-22.18 2.04-37.985-26.273-20.801-38.305 7.412-5.19 17.713-4.13 25.538.968 18.072 11.772 14.309 35.588-4.737 37.337zm-18.561 8.121c19.007-13.31 47.217 14.865 32.861 32.796-6.542 8.169-19.943 8.942-30.344.484-11.661-9.478-13.203-25.798-2.517-33.28z" fill="#FAC663" fill-opacity=".15"/><path d="M69.046 31.104c-2.13 2.575-6.488 6.324-11.344 9.826-5.13 3.705-10.817 7.135-15.006 8.625-11.327 4.008-19.773 19.413-7.68 30.656C46.196 90.605 55.12 83.32 65.458 93.35c10.443 10.142 23.113 9.693 31.274 3.32 7.551-5.898 11.237-16.872 5.696-29.21-5.907-13.145 3.975-19.017-1.968-33.072-6.427-15.227-23.794-12.506-31.414-3.283zm11.518 77.245c5.376-3.765 12.172-3.887 18.072-.922 17.542 8.818 18.74 37.192 1.499 43.008-21.802 7.365-38.568-28.784-19.571-42.086z" fill="#FAC663" fill-opacity=".15"/><path d="M56.796 92.69c16.521 10.605 14.78 38.909-3.04 42.865-21.465 4.766-34.925-30.079-16.626-42.892 5.873-4.112 13.386-4.004 19.666.027z" fill="#FAC663" fill-opacity=".15"/></svg>