<svg width="456" height="425" fill="none" xmlns="http://www.w3.org/2000/svg"><path d="M140.212 132.542c37.738 46.255-1.524 123.914-53.987 103.775-22.627-8.685-35.692-33.181-36.079-58.235-.891-57.864 57.669-85.26 90.066-45.54zm45.833 29.076c-58.031-22.276-37.648-127.31 23.692-122.318 27.946 2.276 49.724 30.914 46.497 66.742-3.606 40.162-37.565 68.1-70.189 55.576z" fill="#FAC663" fill-opacity=".15"/><path d="M133.759 342.439c8.912.87 23.765 4.928 38.816 10.468 15.915 5.843 32.049 13.336 41.632 20.413 25.864 19.166 72.739 14.811 79.624-28.963 6.361-40.469-23.186-49.366-16.374-87.418 6.905-38.448-13.06-65.947-39.437-74.522-24.413-7.933-54.318.353-73.441 31.202-20.369 32.875-48.213 19.719-70.55 54.041-24.217 37.158 7.827 71.687 39.73 74.779zm154.418-141.612c-16.415-6.301-26.859-21.229-29.102-38.8-6.663-52.248 54.598-97.52 93.334-67.92 49.002 37.417-6.233 128.984-64.232 106.72z" fill="#FAC663" fill-opacity=".15"/><path d="M288.959 277.189c-1.164-52.66 64.341-91.294 99.809-57.612 42.724 40.57-14.562 122.825-70.43 101.38-17.93-6.883-28.937-23.749-29.379-43.768z" fill="#FAC663" fill-opacity=".15"/></svg>